<svg xmlns="http://www.w3.org/2000/svg" xmlns:xlink="http://www.w3.org/1999/xlink" width="600" height="390" aria-label="A chart." style="overflow:hidden"><defs id="_ABSTRACT_RENDERER_ID_517"><clipPath id="_ABSTRACT_RENDERER_ID_518"><rect width="371" height="241" x="115" y="75"/></clipPath><filter id="_ABSTRACT_RENDERER_ID_519"><feGaussianBlur in="SourceAlpha" stdDeviation="2"/><feOffset dx="1" dy="1"/><feComponentTransfer><feFuncA slope=".1" type="linear"/></feComponentTransfer><feMerge><feMergeNode/><feMergeNode in="SourceGraphic"/></feMerge></filter></defs><rect width="600" height="390" x="0" y="0" fill="#fff" stroke="none" stroke-width="0"/><g><text x="115" y="52.05" fill="#000" stroke="none" stroke-width="0" font-family="Arial" font-size="13" font-weight="bold" text-anchor="start">Wiki QA dataset</text><rect width="371" height="13" x="115" y="41" fill="#fff" fill-opacity="0" stroke="none" stroke-width="0"/></g><g><rect width="88" height="34" x="499" y="75" fill="#fff" fill-opacity="0" stroke="none" stroke-width="0"/><g><rect width="88" height="13" x="499" y="75" fill="#fff" fill-opacity="0" stroke="none" stroke-width="0"/><g><text x="530" y="86.05" fill="#222" stroke="none" stroke-width="0" font-family="Arial" font-size="13" text-anchor="start">faithfulness</text></g><rect width="26" height="13" x="499" y="75" fill="#36c" stroke="none" stroke-width="0"/></g><g><rect width="88" height="13" x="499" y="96" fill="#fff" fill-opacity="0" stroke="none" stroke-width="0"/><g><text x="530" y="107.05" fill="#222" stroke="none" stroke-width="0" font-family="Arial" font-size="13" text-anchor="start">relevance</text></g><rect width="26" height="13" x="499" y="96" fill="#dc3912" stroke="none" stroke-width="0"/></g></g><g><rect width="371" height="241" x="115" y="75" fill="#fff" fill-opacity="0" stroke="none" stroke-width="0"/><g clip-path="url(https://www.rapidtables.com/tools/bar-graph.html#_ABSTRACT_RENDERER_ID_518)"><g><rect width="371" height="1" x="115" y="315" fill="#ccc" stroke="none" stroke-width="0"/><rect width="371" height="1" x="115" y="267" fill="#ccc" stroke="none" stroke-width="0"/><rect width="371" height="1" x="115" y="219" fill="#ccc" stroke="none" stroke-width="0"/><rect width="371" height="1" x="115" y="171" fill="#ccc" stroke="none" stroke-width="0"/><rect width="371" height="1" x="115" y="123" fill="#ccc" stroke="none" stroke-width="0"/><rect width="371" height="1" x="115" y="75" fill="#ccc" stroke="none" stroke-width="0"/><rect width="371" height="1" x="115" y="291" fill="#ebebeb" stroke="none" stroke-width="0"/><rect width="371" height="1" x="115" y="243" fill="#ebebeb" stroke="none" stroke-width="0"/><rect width="371" height="1" x="115" y="195" fill="#ebebeb" stroke="none" stroke-width="0"/><rect width="371" height="1" x="115" y="147" fill="#ebebeb" stroke="none" stroke-width="0"/><rect width="371" height="1" x="115" y="99" fill="#ebebeb" stroke="none" stroke-width="0"/></g><g><rect width="57" height="114" x="151" y="201" fill="#36c" stroke="none" stroke-width="0"/><rect width="57" height="179" x="336" y="136" fill="#36c" stroke="none" stroke-width="0"/><rect width="56" height="148" x="209" y="167" fill="#dc3912" stroke="none" stroke-width="0"/><rect width="56" height="167" x="394" y="148" fill="#dc3912" stroke="none" stroke-width="0"/></g><g><rect width="371" height="1" x="115" y="315" fill="#333" stroke="none" stroke-width="0"/></g></g><g><g><text x="208" y="335.05" fill="#222" stroke="none" stroke-width="0" font-family="Arial" font-size="13" text-anchor="middle">GPT3.5</text></g><g><text x="393" y="335.05" fill="#222" stroke="none" stroke-width="0" font-family="Arial" font-size="13" text-anchor="middle">ragas</text></g><g><text x="102" y="320.05" fill="#444" stroke="none" stroke-width="0" font-family="Arial" font-size="13" text-anchor="end">0</text></g><g><text x="102" y="272.05" fill="#444" stroke="none" stroke-width="0" font-family="Arial" font-size="13" text-anchor="end">20</text></g><g><text x="102" y="224.05" fill="#444" stroke="none" stroke-width="0" font-family="Arial" font-size="13" text-anchor="end">40</text></g><g><text x="102" y="176.05" fill="#444" stroke="none" stroke-width="0" font-family="Arial" font-size="13" text-anchor="end">60</text></g><g><text x="102" y="128.05" fill="#444" stroke="none" stroke-width="0" font-family="Arial" font-size="13" text-anchor="end">80</text></g><g><text x="102" y="80.05" fill="#444" stroke="none" stroke-width="0" font-family="Arial" font-size="13" text-anchor="end">100</text></g></g></g><g><g><text x="300.5" y="368.05" fill="#222" stroke="none" stroke-width="0" font-family="Arial" font-size="13" font-style="italic" text-anchor="middle">method used</text><rect width="371" height="13" x="115" y="357" fill="#fff" fill-opacity="0" stroke="none" stroke-width="0"/></g><g><text x="44.55" y="195.5" fill="#222" stroke="none" stroke-width="0" font-family="Arial" font-size="13" font-style="italic" text-anchor="middle" transform="rotate(-90 44.55 195.5)">Correlation against human judgement</text><path fill="#fff" fill-opacity="0" stroke="none" stroke-width="0" d="M33.49999999999999,316L33.50000000000001,75L46.50000000000001,75L46.49999999999999,316Z"/></g></g></svg>